<mxfile host="app.diagrams.net" agent="Mozilla/5.0 (Windows NT 10.0; Win64; x64) AppleWebKit/537.36 (KHTML, like Gecko) Chrome/135.0.0.0 Safari/537.36" version="26.2.14">
  <diagram id="C5RBs43oDa-KdzZeNtuy" name="Page-1">
    <mxGraphModel grid="1" page="1" gridSize="10" guides="1" tooltips="1" connect="1" arrows="1" fold="1" pageScale="1" pageWidth="2336" pageHeight="1654" math="0" shadow="0">
      <root>
        <mxCell id="WIyWlLk6GJQsqaUBKTNV-0" />
        <mxCell id="WIyWlLk6GJQsqaUBKTNV-1" parent="WIyWlLk6GJQsqaUBKTNV-0" />
        <mxCell id="UE-0gr97bJ8DjtLUeU1i-0" value="PokerGame" style="swimlane;fontStyle=1;align=center;verticalAlign=top;childLayout=stackLayout;horizontal=1;startSize=26;horizontalStack=0;resizeParent=1;resizeParentMax=0;resizeLast=0;collapsible=1;marginBottom=0;whiteSpace=wrap;html=1;" vertex="1" parent="WIyWlLk6GJQsqaUBKTNV-1">
          <mxGeometry x="600" y="178" width="160" height="268" as="geometry" />
        </mxCell>
        <mxCell id="UE-0gr97bJ8DjtLUeU1i-1" value="MAX_PLAYER : int&amp;nbsp;" style="text;strokeColor=none;fillColor=none;align=left;verticalAlign=top;spacingLeft=4;spacingRight=4;overflow=hidden;rotatable=0;points=[[0,0.5],[1,0.5]];portConstraint=eastwest;whiteSpace=wrap;html=1;fontSize=6;spacing=1;" vertex="1" parent="UE-0gr97bJ8DjtLUeU1i-0">
          <mxGeometry y="26" width="160" height="18" as="geometry" />
        </mxCell>
        <mxCell id="UE-0gr97bJ8DjtLUeU1i-5" value="NUMBER_OF_ROUNDS : int&lt;div&gt;&lt;br&gt;&lt;/div&gt;" style="text;strokeColor=none;fillColor=none;align=left;verticalAlign=top;spacingLeft=4;spacingRight=4;overflow=hidden;rotatable=0;points=[[0,0.5],[1,0.5]];portConstraint=eastwest;whiteSpace=wrap;html=1;fontSize=6;spacing=1;" vertex="1" parent="UE-0gr97bJ8DjtLUeU1i-0">
          <mxGeometry y="44" width="160" height="18" as="geometry" />
        </mxCell>
        <mxCell id="UE-0gr97bJ8DjtLUeU1i-6" value="players : ArrayList&amp;lt;Player&amp;gt; [*]" style="text;strokeColor=none;fillColor=none;align=left;verticalAlign=top;spacingLeft=4;spacingRight=4;overflow=hidden;rotatable=0;points=[[0,0.5],[1,0.5]];portConstraint=eastwest;whiteSpace=wrap;html=1;fontSize=6;spacing=1;" vertex="1" parent="UE-0gr97bJ8DjtLUeU1i-0">
          <mxGeometry y="62" width="160" height="18" as="geometry" />
        </mxCell>
        <mxCell id="UE-0gr97bJ8DjtLUeU1i-7" value="dealer : Dealer" style="text;strokeColor=none;fillColor=none;align=left;verticalAlign=top;spacingLeft=4;spacingRight=4;overflow=hidden;rotatable=0;points=[[0,0.5],[1,0.5]];portConstraint=eastwest;whiteSpace=wrap;html=1;fontSize=6;spacing=1;" vertex="1" parent="UE-0gr97bJ8DjtLUeU1i-0">
          <mxGeometry y="80" width="160" height="18" as="geometry" />
        </mxCell>
        <mxCell id="UE-0gr97bJ8DjtLUeU1i-8" value="scanner : Scanner" style="text;strokeColor=none;fillColor=none;align=left;verticalAlign=top;spacingLeft=4;spacingRight=4;overflow=hidden;rotatable=0;points=[[0,0.5],[1,0.5]];portConstraint=eastwest;whiteSpace=wrap;html=1;fontSize=6;spacing=1;" vertex="1" parent="UE-0gr97bJ8DjtLUeU1i-0">
          <mxGeometry y="98" width="160" height="18" as="geometry" />
        </mxCell>
        <mxCell id="UE-0gr97bJ8DjtLUeU1i-2" value="" style="line;strokeWidth=1;fillColor=none;align=left;verticalAlign=middle;spacingTop=-1;spacingLeft=3;spacingRight=3;rotatable=0;labelPosition=right;points=[];portConstraint=eastwest;strokeColor=inherit;" vertex="1" parent="UE-0gr97bJ8DjtLUeU1i-0">
          <mxGeometry y="116" width="160" height="8" as="geometry" />
        </mxCell>
        <mxCell id="UE-0gr97bJ8DjtLUeU1i-3" value="start(): void" style="text;strokeColor=none;fillColor=none;align=left;verticalAlign=top;spacingLeft=4;spacingRight=4;overflow=hidden;rotatable=0;points=[[0,0.5],[1,0.5]];portConstraint=eastwest;whiteSpace=wrap;html=1;fontSize=6;spacing=1;" vertex="1" parent="UE-0gr97bJ8DjtLUeU1i-0">
          <mxGeometry y="124" width="160" height="18" as="geometry" />
        </mxCell>
        <mxCell id="UE-0gr97bJ8DjtLUeU1i-11" value="registerPlayers() : void&amp;nbsp;" style="text;strokeColor=none;fillColor=none;align=left;verticalAlign=top;spacingLeft=4;spacingRight=4;overflow=hidden;rotatable=0;points=[[0,0.5],[1,0.5]];portConstraint=eastwest;whiteSpace=wrap;html=1;fontSize=6;spacing=1;" vertex="1" parent="UE-0gr97bJ8DjtLUeU1i-0">
          <mxGeometry y="142" width="160" height="18" as="geometry" />
        </mxCell>
        <mxCell id="UE-0gr97bJ8DjtLUeU1i-12" value="registerSinglePlayer() : void" style="text;strokeColor=none;fillColor=none;align=left;verticalAlign=top;spacingLeft=4;spacingRight=4;overflow=hidden;rotatable=0;points=[[0,0.5],[1,0.5]];portConstraint=eastwest;whiteSpace=wrap;html=1;fontSize=6;spacing=1;" vertex="1" parent="UE-0gr97bJ8DjtLUeU1i-0">
          <mxGeometry y="160" width="160" height="18" as="geometry" />
        </mxCell>
        <mxCell id="UE-0gr97bJ8DjtLUeU1i-13" value="playRounds() : void" style="text;strokeColor=none;fillColor=none;align=left;verticalAlign=top;spacingLeft=4;spacingRight=4;overflow=hidden;rotatable=0;points=[[0,0.5],[1,0.5]];portConstraint=eastwest;whiteSpace=wrap;html=1;fontSize=6;spacing=1;" vertex="1" parent="UE-0gr97bJ8DjtLUeU1i-0">
          <mxGeometry y="178" width="160" height="18" as="geometry" />
        </mxCell>
        <mxCell id="UE-0gr97bJ8DjtLUeU1i-14" value="dealCardsToPlayers(Deck) : void" style="text;strokeColor=none;fillColor=none;align=left;verticalAlign=top;spacingLeft=4;spacingRight=4;overflow=hidden;rotatable=0;points=[[0,0.5],[1,0.5]];portConstraint=eastwest;whiteSpace=wrap;html=1;fontSize=6;spacing=1;" vertex="1" parent="UE-0gr97bJ8DjtLUeU1i-0">
          <mxGeometry y="196" width="160" height="18" as="geometry" />
        </mxCell>
        <mxCell id="UE-0gr97bJ8DjtLUeU1i-15" value="getUniqueCard(Deck, ArrayList&amp;lt;Card&amp;gt;) : Card" style="text;strokeColor=none;fillColor=none;align=left;verticalAlign=top;spacingLeft=4;spacingRight=4;overflow=hidden;rotatable=0;points=[[0,0.5],[1,0.5]];portConstraint=eastwest;whiteSpace=wrap;html=1;fontSize=6;spacing=1;" vertex="1" parent="UE-0gr97bJ8DjtLUeU1i-0">
          <mxGeometry y="214" width="160" height="18" as="geometry" />
        </mxCell>
        <mxCell id="UE-0gr97bJ8DjtLUeU1i-16" value="isCardDuplicate(Card, ArrayList&amp;lt;Card&amp;gt;) : boolean" style="text;strokeColor=none;fillColor=none;align=left;verticalAlign=top;spacingLeft=4;spacingRight=4;overflow=hidden;rotatable=0;points=[[0,0.5],[1,0.5]];portConstraint=eastwest;whiteSpace=wrap;html=1;fontSize=6;spacing=1;" vertex="1" parent="UE-0gr97bJ8DjtLUeU1i-0">
          <mxGeometry y="232" width="160" height="18" as="geometry" />
        </mxCell>
        <mxCell id="UE-0gr97bJ8DjtLUeU1i-17" value="displayResults() : void&amp;nbsp;" style="text;strokeColor=none;fillColor=none;align=left;verticalAlign=top;spacingLeft=4;spacingRight=4;overflow=hidden;rotatable=0;points=[[0,0.5],[1,0.5]];portConstraint=eastwest;whiteSpace=wrap;html=1;fontSize=6;spacing=1;" vertex="1" parent="UE-0gr97bJ8DjtLUeU1i-0">
          <mxGeometry y="250" width="160" height="18" as="geometry" />
        </mxCell>
        <mxCell id="UE-0gr97bJ8DjtLUeU1i-19" value="Dealer" style="swimlane;fontStyle=1;align=center;verticalAlign=top;childLayout=stackLayout;horizontal=1;startSize=26;horizontalStack=0;resizeParent=1;resizeParentMax=0;resizeLast=0;collapsible=1;marginBottom=0;whiteSpace=wrap;html=1;labelBackgroundColor=default;spacing=1;" vertex="1" parent="WIyWlLk6GJQsqaUBKTNV-1">
          <mxGeometry x="1120" y="270" width="160" height="116" as="geometry" />
        </mxCell>
        <mxCell id="UE-0gr97bJ8DjtLUeU1i-26" value="checkWinner(ArrayList&amp;lt;Player&amp;gt;) : void" style="text;strokeColor=none;fillColor=none;align=left;verticalAlign=top;spacingLeft=4;spacingRight=4;overflow=hidden;rotatable=0;points=[[0,0.5],[1,0.5]];portConstraint=eastwest;whiteSpace=wrap;html=1;fontSize=6;spacing=0;" vertex="1" parent="UE-0gr97bJ8DjtLUeU1i-19">
          <mxGeometry y="26" width="160" height="18" as="geometry" />
        </mxCell>
        <mxCell id="Jv2AM5DRUg8VrkL58GBL-11" value="calPoint(ArrayList&amp;lt;Player&amp;gt;) : void" style="text;strokeColor=none;fillColor=none;align=left;verticalAlign=top;spacingLeft=4;spacingRight=4;overflow=hidden;rotatable=0;points=[[0,0.5],[1,0.5]];portConstraint=eastwest;whiteSpace=wrap;html=1;fontSize=6;spacing=0;" vertex="1" parent="UE-0gr97bJ8DjtLUeU1i-19">
          <mxGeometry y="44" width="160" height="18" as="geometry" />
        </mxCell>
        <mxCell id="Jv2AM5DRUg8VrkL58GBL-20" style="edgeStyle=orthogonalEdgeStyle;rounded=0;orthogonalLoop=1;jettySize=auto;html=1;" edge="1" parent="UE-0gr97bJ8DjtLUeU1i-19" source="UE-0gr97bJ8DjtLUeU1i-27">
          <mxGeometry relative="1" as="geometry">
            <mxPoint x="-190" y="110" as="targetPoint" />
          </mxGeometry>
        </mxCell>
        <mxCell id="UE-0gr97bJ8DjtLUeU1i-27" value="CheckDupleOnePair(ArrayList&amp;lt;Player&amp;gt;) : void" style="text;strokeColor=none;fillColor=none;align=left;verticalAlign=top;spacingLeft=4;spacingRight=4;overflow=hidden;rotatable=0;points=[[0,0.5],[1,0.5]];portConstraint=eastwest;whiteSpace=wrap;html=1;fontSize=6;spacing=0;" vertex="1" parent="UE-0gr97bJ8DjtLUeU1i-19">
          <mxGeometry y="62" width="160" height="18" as="geometry" />
        </mxCell>
        <mxCell id="Jv2AM5DRUg8VrkL58GBL-21" style="edgeStyle=orthogonalEdgeStyle;rounded=0;orthogonalLoop=1;jettySize=auto;html=1;" edge="1" parent="UE-0gr97bJ8DjtLUeU1i-19" source="UE-0gr97bJ8DjtLUeU1i-28">
          <mxGeometry relative="1" as="geometry">
            <mxPoint x="-190" y="110" as="targetPoint" />
          </mxGeometry>
        </mxCell>
        <mxCell id="UE-0gr97bJ8DjtLUeU1i-28" value="FindWinner(ArrayList&amp;lt;Player&amp;gt;) : void&amp;nbsp;" style="text;strokeColor=none;fillColor=none;align=left;verticalAlign=top;spacingLeft=4;spacingRight=4;overflow=hidden;rotatable=0;points=[[0,0.5],[1,0.5]];portConstraint=eastwest;whiteSpace=wrap;html=1;fontSize=6;spacing=0;" vertex="1" parent="UE-0gr97bJ8DjtLUeU1i-19">
          <mxGeometry y="80" width="160" height="18" as="geometry" />
        </mxCell>
        <mxCell id="UE-0gr97bJ8DjtLUeU1i-29" value="CompensateWinner(ArrayList&amp;lt;Player&amp;gt;, int) : void" style="text;strokeColor=none;fillColor=none;align=left;verticalAlign=top;spacingLeft=4;spacingRight=4;overflow=hidden;rotatable=0;points=[[0,0.5],[1,0.5]];portConstraint=eastwest;whiteSpace=wrap;html=1;fontSize=6;spacing=0;" vertex="1" parent="UE-0gr97bJ8DjtLUeU1i-19">
          <mxGeometry y="98" width="160" height="18" as="geometry" />
        </mxCell>
        <mxCell id="Jv2AM5DRUg8VrkL58GBL-36" style="edgeStyle=orthogonalEdgeStyle;rounded=0;orthogonalLoop=1;jettySize=auto;html=1;" edge="1" parent="WIyWlLk6GJQsqaUBKTNV-1" source="UE-0gr97bJ8DjtLUeU1i-35">
          <mxGeometry relative="1" as="geometry">
            <mxPoint x="1200" y="720" as="targetPoint" />
          </mxGeometry>
        </mxCell>
        <mxCell id="UE-0gr97bJ8DjtLUeU1i-35" value="PokerHandChecker" style="swimlane;fontStyle=1;align=center;verticalAlign=top;childLayout=stackLayout;horizontal=1;startSize=26;horizontalStack=0;resizeParent=1;resizeParentMax=0;resizeLast=0;collapsible=1;marginBottom=0;whiteSpace=wrap;html=1;" vertex="1" parent="WIyWlLk6GJQsqaUBKTNV-1">
          <mxGeometry x="1120" y="450" width="160" height="224" as="geometry" />
        </mxCell>
        <mxCell id="Jv2AM5DRUg8VrkL58GBL-24" style="edgeStyle=orthogonalEdgeStyle;rounded=0;orthogonalLoop=1;jettySize=auto;html=1;" edge="1" parent="UE-0gr97bJ8DjtLUeU1i-35" source="UE-0gr97bJ8DjtLUeU1i-48">
          <mxGeometry relative="1" as="geometry">
            <mxPoint x="-120" y="271" as="targetPoint" />
          </mxGeometry>
        </mxCell>
        <mxCell id="UE-0gr97bJ8DjtLUeU1i-48" value="isStraight(Card[]) : boolean" style="text;strokeColor=none;fillColor=none;align=left;verticalAlign=top;spacingLeft=4;spacingRight=4;overflow=hidden;rotatable=0;points=[[0,0.5],[1,0.5]];portConstraint=eastwest;whiteSpace=wrap;html=1;fontSize=6;spacing=1;" vertex="1" parent="UE-0gr97bJ8DjtLUeU1i-35">
          <mxGeometry y="26" width="160" height="18" as="geometry" />
        </mxCell>
        <mxCell id="Jv2AM5DRUg8VrkL58GBL-25" style="edgeStyle=orthogonalEdgeStyle;rounded=0;orthogonalLoop=1;jettySize=auto;html=1;" edge="1" parent="UE-0gr97bJ8DjtLUeU1i-35" source="UE-0gr97bJ8DjtLUeU1i-49">
          <mxGeometry relative="1" as="geometry">
            <mxPoint x="-100" y="270" as="targetPoint" />
          </mxGeometry>
        </mxCell>
        <mxCell id="UE-0gr97bJ8DjtLUeU1i-49" value="isThreeOfAKind(Card[]) : boolean" style="text;strokeColor=none;fillColor=none;align=left;verticalAlign=top;spacingLeft=4;spacingRight=4;overflow=hidden;rotatable=0;points=[[0,0.5],[1,0.5]];portConstraint=eastwest;whiteSpace=wrap;html=1;fontSize=6;spacing=1;" vertex="1" parent="UE-0gr97bJ8DjtLUeU1i-35">
          <mxGeometry y="44" width="160" height="18" as="geometry" />
        </mxCell>
        <mxCell id="Jv2AM5DRUg8VrkL58GBL-26" style="edgeStyle=orthogonalEdgeStyle;rounded=0;orthogonalLoop=1;jettySize=auto;html=1;" edge="1" parent="UE-0gr97bJ8DjtLUeU1i-35" source="UE-0gr97bJ8DjtLUeU1i-50">
          <mxGeometry relative="1" as="geometry">
            <mxPoint x="-80" y="270" as="targetPoint" />
          </mxGeometry>
        </mxCell>
        <mxCell id="UE-0gr97bJ8DjtLUeU1i-50" value="isTwoPair(Card[]) : boolean" style="text;strokeColor=none;fillColor=none;align=left;verticalAlign=top;spacingLeft=4;spacingRight=4;overflow=hidden;rotatable=0;points=[[0,0.5],[1,0.5]];portConstraint=eastwest;whiteSpace=wrap;html=1;fontSize=6;spacing=1;" vertex="1" parent="UE-0gr97bJ8DjtLUeU1i-35">
          <mxGeometry y="62" width="160" height="18" as="geometry" />
        </mxCell>
        <mxCell id="Jv2AM5DRUg8VrkL58GBL-27" style="edgeStyle=orthogonalEdgeStyle;rounded=0;orthogonalLoop=1;jettySize=auto;html=1;" edge="1" parent="UE-0gr97bJ8DjtLUeU1i-35" source="UE-0gr97bJ8DjtLUeU1i-51">
          <mxGeometry relative="1" as="geometry">
            <mxPoint x="-60" y="270" as="targetPoint" />
          </mxGeometry>
        </mxCell>
        <mxCell id="UE-0gr97bJ8DjtLUeU1i-51" value="isOnePair(Card[]) : boolean" style="text;strokeColor=none;fillColor=none;align=left;verticalAlign=top;spacingLeft=4;spacingRight=4;overflow=hidden;rotatable=0;points=[[0,0.5],[1,0.5]];portConstraint=eastwest;whiteSpace=wrap;html=1;fontSize=6;spacing=1;" vertex="1" parent="UE-0gr97bJ8DjtLUeU1i-35">
          <mxGeometry y="80" width="160" height="18" as="geometry" />
        </mxCell>
        <mxCell id="Jv2AM5DRUg8VrkL58GBL-28" style="edgeStyle=orthogonalEdgeStyle;rounded=0;orthogonalLoop=1;jettySize=auto;html=1;" edge="1" parent="UE-0gr97bJ8DjtLUeU1i-35" source="UE-0gr97bJ8DjtLUeU1i-52">
          <mxGeometry relative="1" as="geometry">
            <mxPoint x="-40" y="270" as="targetPoint" />
          </mxGeometry>
        </mxCell>
        <mxCell id="UE-0gr97bJ8DjtLUeU1i-52" value="getHighCardScore(Card[]) : int&amp;nbsp;" style="text;strokeColor=none;fillColor=none;align=left;verticalAlign=top;spacingLeft=4;spacingRight=4;overflow=hidden;rotatable=0;points=[[0,0.5],[1,0.5]];portConstraint=eastwest;whiteSpace=wrap;html=1;fontSize=6;spacing=1;" vertex="1" parent="UE-0gr97bJ8DjtLUeU1i-35">
          <mxGeometry y="98" width="160" height="18" as="geometry" />
        </mxCell>
        <mxCell id="Jv2AM5DRUg8VrkL58GBL-29" style="edgeStyle=orthogonalEdgeStyle;rounded=0;orthogonalLoop=1;jettySize=auto;html=1;" edge="1" parent="UE-0gr97bJ8DjtLUeU1i-35" source="UE-0gr97bJ8DjtLUeU1i-42">
          <mxGeometry relative="1" as="geometry">
            <mxPoint x="-20" y="270" as="targetPoint" />
          </mxGeometry>
        </mxCell>
        <mxCell id="UE-0gr97bJ8DjtLUeU1i-42" value="isRoyalFlush(Card[]) : boolean" style="text;strokeColor=none;fillColor=none;align=left;verticalAlign=top;spacingLeft=4;spacingRight=4;overflow=hidden;rotatable=0;points=[[0,0.5],[1,0.5]];portConstraint=eastwest;whiteSpace=wrap;html=1;fontSize=6;spacing=1;" vertex="1" parent="UE-0gr97bJ8DjtLUeU1i-35">
          <mxGeometry y="116" width="160" height="18" as="geometry" />
        </mxCell>
        <mxCell id="Jv2AM5DRUg8VrkL58GBL-31" style="edgeStyle=orthogonalEdgeStyle;rounded=0;orthogonalLoop=1;jettySize=auto;html=1;" edge="1" parent="UE-0gr97bJ8DjtLUeU1i-35" source="UE-0gr97bJ8DjtLUeU1i-43">
          <mxGeometry relative="1" as="geometry">
            <mxPoint x="240" y="270" as="targetPoint" />
          </mxGeometry>
        </mxCell>
        <mxCell id="UE-0gr97bJ8DjtLUeU1i-43" value="hasRoyalFlush(Card[]) : boolean" style="text;strokeColor=none;fillColor=none;align=left;verticalAlign=top;spacingLeft=4;spacingRight=4;overflow=hidden;rotatable=0;points=[[0,0.5],[1,0.5]];portConstraint=eastwest;whiteSpace=wrap;html=1;fontSize=6;spacing=1;" vertex="1" parent="UE-0gr97bJ8DjtLUeU1i-35">
          <mxGeometry y="134" width="160" height="18" as="geometry" />
        </mxCell>
        <mxCell id="Jv2AM5DRUg8VrkL58GBL-32" style="edgeStyle=orthogonalEdgeStyle;rounded=0;orthogonalLoop=1;jettySize=auto;html=1;" edge="1" parent="UE-0gr97bJ8DjtLUeU1i-35" source="UE-0gr97bJ8DjtLUeU1i-44">
          <mxGeometry relative="1" as="geometry">
            <mxPoint x="220" y="270" as="targetPoint" />
          </mxGeometry>
        </mxCell>
        <mxCell id="UE-0gr97bJ8DjtLUeU1i-44" value="isStraightFlush(Card[]) : boolean" style="text;strokeColor=none;fillColor=none;align=left;verticalAlign=top;spacingLeft=4;spacingRight=4;overflow=hidden;rotatable=0;points=[[0,0.5],[1,0.5]];portConstraint=eastwest;whiteSpace=wrap;html=1;fontSize=6;spacing=1;" vertex="1" parent="UE-0gr97bJ8DjtLUeU1i-35">
          <mxGeometry y="152" width="160" height="18" as="geometry" />
        </mxCell>
        <mxCell id="Jv2AM5DRUg8VrkL58GBL-33" style="edgeStyle=orthogonalEdgeStyle;rounded=0;orthogonalLoop=1;jettySize=auto;html=1;" edge="1" parent="UE-0gr97bJ8DjtLUeU1i-35" source="UE-0gr97bJ8DjtLUeU1i-45">
          <mxGeometry relative="1" as="geometry">
            <mxPoint x="200" y="270" as="targetPoint" />
          </mxGeometry>
        </mxCell>
        <mxCell id="UE-0gr97bJ8DjtLUeU1i-45" value="isFourOfAKind(Card[]) : boolean" style="text;strokeColor=none;fillColor=none;align=left;verticalAlign=top;spacingLeft=4;spacingRight=4;overflow=hidden;rotatable=0;points=[[0,0.5],[1,0.5]];portConstraint=eastwest;whiteSpace=wrap;html=1;fontSize=6;spacing=1;" vertex="1" parent="UE-0gr97bJ8DjtLUeU1i-35">
          <mxGeometry y="170" width="160" height="18" as="geometry" />
        </mxCell>
        <mxCell id="Jv2AM5DRUg8VrkL58GBL-34" style="edgeStyle=orthogonalEdgeStyle;rounded=0;orthogonalLoop=1;jettySize=auto;html=1;" edge="1" parent="UE-0gr97bJ8DjtLUeU1i-35" source="UE-0gr97bJ8DjtLUeU1i-46">
          <mxGeometry relative="1" as="geometry">
            <mxPoint x="180" y="270" as="targetPoint" />
          </mxGeometry>
        </mxCell>
        <mxCell id="UE-0gr97bJ8DjtLUeU1i-46" value="isFullHouse(Card[]) : boolean" style="text;strokeColor=none;fillColor=none;align=left;verticalAlign=top;spacingLeft=4;spacingRight=4;overflow=hidden;rotatable=0;points=[[0,0.5],[1,0.5]];portConstraint=eastwest;whiteSpace=wrap;html=1;fontSize=6;spacing=1;" vertex="1" parent="UE-0gr97bJ8DjtLUeU1i-35">
          <mxGeometry y="188" width="160" height="18" as="geometry" />
        </mxCell>
        <mxCell id="UE-0gr97bJ8DjtLUeU1i-47" value="isFlush(Card[]) : boolean" style="text;strokeColor=none;fillColor=none;align=left;verticalAlign=top;spacingLeft=4;spacingRight=4;overflow=hidden;rotatable=0;points=[[0,0.5],[1,0.5]];portConstraint=eastwest;whiteSpace=wrap;html=1;fontSize=6;spacing=1;" vertex="1" parent="UE-0gr97bJ8DjtLUeU1i-35">
          <mxGeometry y="206" width="160" height="18" as="geometry" />
        </mxCell>
        <mxCell id="UE-0gr97bJ8DjtLUeU1i-53" value="Card" style="swimlane;fontStyle=1;align=center;verticalAlign=top;childLayout=stackLayout;horizontal=1;startSize=26;horizontalStack=0;resizeParent=1;resizeParentMax=0;resizeLast=0;collapsible=1;marginBottom=0;whiteSpace=wrap;html=1;" vertex="1" parent="WIyWlLk6GJQsqaUBKTNV-1">
          <mxGeometry x="400" y="524" width="160" height="142" as="geometry" />
        </mxCell>
        <mxCell id="UE-0gr97bJ8DjtLUeU1i-61" value="getNumber() : int" style="text;strokeColor=none;fillColor=none;align=left;verticalAlign=top;spacingLeft=4;spacingRight=4;overflow=hidden;rotatable=0;points=[[0,0.5],[1,0.5]];portConstraint=eastwest;whiteSpace=wrap;html=1;fontSize=6;spacing=1;" vertex="1" parent="UE-0gr97bJ8DjtLUeU1i-53">
          <mxGeometry y="26" width="160" height="18" as="geometry" />
        </mxCell>
        <mxCell id="UE-0gr97bJ8DjtLUeU1i-54" value="KIND_MAX : int" style="text;strokeColor=none;fillColor=none;align=left;verticalAlign=top;spacingLeft=4;spacingRight=4;overflow=hidden;rotatable=0;points=[[0,0.5],[1,0.5]];portConstraint=eastwest;whiteSpace=wrap;html=1;fontSize=6;spacing=1;" vertex="1" parent="UE-0gr97bJ8DjtLUeU1i-53">
          <mxGeometry y="44" width="160" height="18" as="geometry" />
        </mxCell>
        <mxCell id="UE-0gr97bJ8DjtLUeU1i-55" value="&lt;div&gt;NUM_MAX : int&lt;/div&gt;" style="text;strokeColor=none;fillColor=none;align=left;verticalAlign=top;spacingLeft=4;spacingRight=4;overflow=hidden;rotatable=0;points=[[0,0.5],[1,0.5]];portConstraint=eastwest;whiteSpace=wrap;html=1;fontSize=6;spacing=1;" vertex="1" parent="UE-0gr97bJ8DjtLUeU1i-53">
          <mxGeometry y="62" width="160" height="18" as="geometry" />
        </mxCell>
        <mxCell id="UE-0gr97bJ8DjtLUeU1i-56" value="kind : int" style="text;strokeColor=none;fillColor=none;align=left;verticalAlign=top;spacingLeft=4;spacingRight=4;overflow=hidden;rotatable=0;points=[[0,0.5],[1,0.5]];portConstraint=eastwest;whiteSpace=wrap;html=1;fontSize=6;spacing=1;" vertex="1" parent="UE-0gr97bJ8DjtLUeU1i-53">
          <mxGeometry y="80" width="160" height="18" as="geometry" />
        </mxCell>
        <mxCell id="UE-0gr97bJ8DjtLUeU1i-57" value="number : int" style="text;strokeColor=none;fillColor=none;align=left;verticalAlign=top;spacingLeft=4;spacingRight=4;overflow=hidden;rotatable=0;points=[[0,0.5],[1,0.5]];portConstraint=eastwest;whiteSpace=wrap;html=1;fontSize=6;spacing=1;" vertex="1" parent="UE-0gr97bJ8DjtLUeU1i-53">
          <mxGeometry y="98" width="160" height="18" as="geometry" />
        </mxCell>
        <mxCell id="UE-0gr97bJ8DjtLUeU1i-59" value="" style="line;strokeWidth=1;fillColor=none;align=left;verticalAlign=middle;spacingTop=-1;spacingLeft=3;spacingRight=3;rotatable=0;labelPosition=right;points=[];portConstraint=eastwest;strokeColor=inherit;" vertex="1" parent="UE-0gr97bJ8DjtLUeU1i-53">
          <mxGeometry y="116" width="160" height="8" as="geometry" />
        </mxCell>
        <mxCell id="UE-0gr97bJ8DjtLUeU1i-60" value="getKind() : int" style="text;strokeColor=none;fillColor=none;align=left;verticalAlign=top;spacingLeft=4;spacingRight=4;overflow=hidden;rotatable=0;points=[[0,0.5],[1,0.5]];portConstraint=eastwest;whiteSpace=wrap;html=1;fontSize=6;spacing=1;" vertex="1" parent="UE-0gr97bJ8DjtLUeU1i-53">
          <mxGeometry y="124" width="160" height="18" as="geometry" />
        </mxCell>
        <mxCell id="UE-0gr97bJ8DjtLUeU1i-69" value="Player" style="swimlane;fontStyle=1;align=center;verticalAlign=top;childLayout=stackLayout;horizontal=1;startSize=26;horizontalStack=0;resizeParent=1;resizeParentMax=0;resizeLast=0;collapsible=1;marginBottom=0;whiteSpace=wrap;html=1;" vertex="1" parent="WIyWlLk6GJQsqaUBKTNV-1">
          <mxGeometry x="810" y="400" width="160" height="304" as="geometry" />
        </mxCell>
        <mxCell id="UE-0gr97bJ8DjtLUeU1i-70" value="nickName : String" style="text;strokeColor=none;fillColor=none;align=left;verticalAlign=top;spacingLeft=4;spacingRight=4;overflow=hidden;rotatable=0;points=[[0,0.5],[1,0.5]];portConstraint=eastwest;whiteSpace=wrap;html=1;fontSize=6;spacing=1;" vertex="1" parent="UE-0gr97bJ8DjtLUeU1i-69">
          <mxGeometry y="26" width="160" height="18" as="geometry" />
        </mxCell>
        <mxCell id="UE-0gr97bJ8DjtLUeU1i-71" value="&lt;div&gt;winGames : int&lt;/div&gt;" style="text;strokeColor=none;fillColor=none;align=left;verticalAlign=top;spacingLeft=4;spacingRight=4;overflow=hidden;rotatable=0;points=[[0,0.5],[1,0.5]];portConstraint=eastwest;whiteSpace=wrap;html=1;fontSize=6;spacing=1;" vertex="1" parent="UE-0gr97bJ8DjtLUeU1i-69">
          <mxGeometry y="44" width="160" height="18" as="geometry" />
        </mxCell>
        <mxCell id="UE-0gr97bJ8DjtLUeU1i-72" value="loseGames : int" style="text;strokeColor=none;fillColor=none;align=left;verticalAlign=top;spacingLeft=4;spacingRight=4;overflow=hidden;rotatable=0;points=[[0,0.5],[1,0.5]];portConstraint=eastwest;whiteSpace=wrap;html=1;fontSize=6;spacing=1;" vertex="1" parent="UE-0gr97bJ8DjtLUeU1i-69">
          <mxGeometry y="62" width="160" height="18" as="geometry" />
        </mxCell>
        <mxCell id="UE-0gr97bJ8DjtLUeU1i-73" value="points : int" style="text;strokeColor=none;fillColor=none;align=left;verticalAlign=top;spacingLeft=4;spacingRight=4;overflow=hidden;rotatable=0;points=[[0,0.5],[1,0.5]];portConstraint=eastwest;whiteSpace=wrap;html=1;fontSize=6;spacing=1;" vertex="1" parent="UE-0gr97bJ8DjtLUeU1i-69">
          <mxGeometry y="80" width="160" height="18" as="geometry" />
        </mxCell>
        <mxCell id="UE-0gr97bJ8DjtLUeU1i-74" value="gmaeMoney : int" style="text;strokeColor=none;fillColor=none;align=left;verticalAlign=top;spacingLeft=4;spacingRight=4;overflow=hidden;rotatable=0;points=[[0,0.5],[1,0.5]];portConstraint=eastwest;whiteSpace=wrap;html=1;fontSize=6;spacing=1;" vertex="1" parent="UE-0gr97bJ8DjtLUeU1i-69">
          <mxGeometry y="98" width="160" height="18" as="geometry" />
        </mxCell>
        <mxCell id="Jv2AM5DRUg8VrkL58GBL-43" style="edgeStyle=orthogonalEdgeStyle;rounded=0;orthogonalLoop=1;jettySize=auto;html=1;" edge="1" parent="UE-0gr97bJ8DjtLUeU1i-69" source="UE-0gr97bJ8DjtLUeU1i-84">
          <mxGeometry relative="1" as="geometry">
            <mxPoint x="-130" y="125" as="targetPoint" />
          </mxGeometry>
        </mxCell>
        <mxCell id="UE-0gr97bJ8DjtLUeU1i-84" value="cards : Card[]&amp;nbsp;" style="text;strokeColor=none;fillColor=none;align=left;verticalAlign=top;spacingLeft=4;spacingRight=4;overflow=hidden;rotatable=0;points=[[0,0.5],[1,0.5]];portConstraint=eastwest;whiteSpace=wrap;html=1;fontSize=6;spacing=1;" vertex="1" parent="UE-0gr97bJ8DjtLUeU1i-69">
          <mxGeometry y="116" width="160" height="18" as="geometry" />
        </mxCell>
        <mxCell id="UE-0gr97bJ8DjtLUeU1i-75" value="" style="line;strokeWidth=1;fillColor=none;align=left;verticalAlign=middle;spacingTop=-1;spacingLeft=3;spacingRight=3;rotatable=0;labelPosition=right;points=[];portConstraint=eastwest;strokeColor=inherit;" vertex="1" parent="UE-0gr97bJ8DjtLUeU1i-69">
          <mxGeometry y="134" width="160" height="8" as="geometry" />
        </mxCell>
        <mxCell id="UE-0gr97bJ8DjtLUeU1i-76" value="getWinGames() : int" style="text;strokeColor=none;fillColor=none;align=left;verticalAlign=top;spacingLeft=4;spacingRight=4;overflow=hidden;rotatable=0;points=[[0,0.5],[1,0.5]];portConstraint=eastwest;whiteSpace=wrap;html=1;fontSize=6;spacing=1;" vertex="1" parent="UE-0gr97bJ8DjtLUeU1i-69">
          <mxGeometry y="142" width="160" height="18" as="geometry" />
        </mxCell>
        <mxCell id="UE-0gr97bJ8DjtLUeU1i-77" value="getPoints() : int" style="text;strokeColor=none;fillColor=none;align=left;verticalAlign=top;spacingLeft=4;spacingRight=4;overflow=hidden;rotatable=0;points=[[0,0.5],[1,0.5]];portConstraint=eastwest;whiteSpace=wrap;html=1;fontSize=6;spacing=1;" vertex="1" parent="UE-0gr97bJ8DjtLUeU1i-69">
          <mxGeometry y="160" width="160" height="18" as="geometry" />
        </mxCell>
        <mxCell id="UE-0gr97bJ8DjtLUeU1i-78" value="setPoints(int) : void" style="text;strokeColor=none;fillColor=none;align=left;verticalAlign=top;spacingLeft=4;spacingRight=4;overflow=hidden;rotatable=0;points=[[0,0.5],[1,0.5]];portConstraint=eastwest;whiteSpace=wrap;html=1;fontSize=6;spacing=1;" vertex="1" parent="UE-0gr97bJ8DjtLUeU1i-69">
          <mxGeometry y="178" width="160" height="18" as="geometry" />
        </mxCell>
        <mxCell id="UE-0gr97bJ8DjtLUeU1i-79" value="addWin() : void" style="text;strokeColor=none;fillColor=none;align=left;verticalAlign=top;spacingLeft=4;spacingRight=4;overflow=hidden;rotatable=0;points=[[0,0.5],[1,0.5]];portConstraint=eastwest;whiteSpace=wrap;html=1;fontSize=6;spacing=1;" vertex="1" parent="UE-0gr97bJ8DjtLUeU1i-69">
          <mxGeometry y="196" width="160" height="18" as="geometry" />
        </mxCell>
        <mxCell id="UE-0gr97bJ8DjtLUeU1i-80" value="addLoss() : void" style="text;strokeColor=none;fillColor=none;align=left;verticalAlign=top;spacingLeft=4;spacingRight=4;overflow=hidden;rotatable=0;points=[[0,0.5],[1,0.5]];portConstraint=eastwest;whiteSpace=wrap;html=1;fontSize=6;spacing=1;" vertex="1" parent="UE-0gr97bJ8DjtLUeU1i-69">
          <mxGeometry y="214" width="160" height="18" as="geometry" />
        </mxCell>
        <mxCell id="UE-0gr97bJ8DjtLUeU1i-81" value="addMoney(int) : void" style="text;strokeColor=none;fillColor=none;align=left;verticalAlign=top;spacingLeft=4;spacingRight=4;overflow=hidden;rotatable=0;points=[[0,0.5],[1,0.5]];portConstraint=eastwest;whiteSpace=wrap;html=1;fontSize=6;spacing=1;" vertex="1" parent="UE-0gr97bJ8DjtLUeU1i-69">
          <mxGeometry y="232" width="160" height="18" as="geometry" />
        </mxCell>
        <mxCell id="Jv2AM5DRUg8VrkL58GBL-44" style="edgeStyle=orthogonalEdgeStyle;rounded=0;orthogonalLoop=1;jettySize=auto;html=1;" edge="1" parent="UE-0gr97bJ8DjtLUeU1i-69" source="UE-0gr97bJ8DjtLUeU1i-82">
          <mxGeometry relative="1" as="geometry">
            <mxPoint x="-130" y="259" as="targetPoint" />
          </mxGeometry>
        </mxCell>
        <mxCell id="UE-0gr97bJ8DjtLUeU1i-82" value="getCards() : Card[]" style="text;strokeColor=none;fillColor=none;align=left;verticalAlign=top;spacingLeft=4;spacingRight=4;overflow=hidden;rotatable=0;points=[[0,0.5],[1,0.5]];portConstraint=eastwest;whiteSpace=wrap;html=1;fontSize=6;spacing=1;" vertex="1" parent="UE-0gr97bJ8DjtLUeU1i-69">
          <mxGeometry y="250" width="160" height="18" as="geometry" />
        </mxCell>
        <mxCell id="Jv2AM5DRUg8VrkL58GBL-45" style="edgeStyle=orthogonalEdgeStyle;rounded=0;orthogonalLoop=1;jettySize=auto;html=1;" edge="1" parent="UE-0gr97bJ8DjtLUeU1i-69" source="UE-0gr97bJ8DjtLUeU1i-83">
          <mxGeometry relative="1" as="geometry">
            <mxPoint x="-130" y="277" as="targetPoint" />
          </mxGeometry>
        </mxCell>
        <mxCell id="UE-0gr97bJ8DjtLUeU1i-83" value="setCards(Card[]) : void&amp;nbsp;" style="text;strokeColor=none;fillColor=none;align=left;verticalAlign=top;spacingLeft=4;spacingRight=4;overflow=hidden;rotatable=0;points=[[0,0.5],[1,0.5]];portConstraint=eastwest;whiteSpace=wrap;html=1;fontSize=6;spacing=1;" vertex="1" parent="UE-0gr97bJ8DjtLUeU1i-69">
          <mxGeometry y="268" width="160" height="18" as="geometry" />
        </mxCell>
        <mxCell id="UE-0gr97bJ8DjtLUeU1i-85" value="toString() : String" style="text;strokeColor=none;fillColor=none;align=left;verticalAlign=top;spacingLeft=4;spacingRight=4;overflow=hidden;rotatable=0;points=[[0,0.5],[1,0.5]];portConstraint=eastwest;whiteSpace=wrap;html=1;fontSize=6;spacing=1;" vertex="1" parent="UE-0gr97bJ8DjtLUeU1i-69">
          <mxGeometry y="286" width="160" height="18" as="geometry" />
        </mxCell>
        <mxCell id="UE-0gr97bJ8DjtLUeU1i-86" value="PointDescending" style="swimlane;fontStyle=1;align=center;verticalAlign=top;childLayout=stackLayout;horizontal=1;startSize=26;horizontalStack=0;resizeParent=1;resizeParentMax=0;resizeLast=0;collapsible=1;marginBottom=0;whiteSpace=wrap;html=1;labelBackgroundColor=default;spacing=1;" vertex="1" parent="WIyWlLk6GJQsqaUBKTNV-1">
          <mxGeometry x="800" y="178" width="160" height="44" as="geometry" />
        </mxCell>
        <mxCell id="UE-0gr97bJ8DjtLUeU1i-87" value="compare(Player, Player) : int" style="text;strokeColor=none;fillColor=none;align=left;verticalAlign=top;spacingLeft=4;spacingRight=4;overflow=hidden;rotatable=0;points=[[0,0.5],[1,0.5]];portConstraint=eastwest;whiteSpace=wrap;html=1;fontSize=6;spacing=0;" vertex="1" parent="UE-0gr97bJ8DjtLUeU1i-86">
          <mxGeometry y="26" width="160" height="18" as="geometry" />
        </mxCell>
        <mxCell id="UE-0gr97bJ8DjtLUeU1i-91" value="Deck" style="swimlane;fontStyle=1;align=center;verticalAlign=top;childLayout=stackLayout;horizontal=1;startSize=26;horizontalStack=0;resizeParent=1;resizeParentMax=0;resizeLast=0;collapsible=1;marginBottom=0;whiteSpace=wrap;html=1;" vertex="1" parent="WIyWlLk6GJQsqaUBKTNV-1">
          <mxGeometry x="200" y="430" width="160" height="106" as="geometry" />
        </mxCell>
        <mxCell id="UE-0gr97bJ8DjtLUeU1i-92" value="CARD_NUM : int" style="text;strokeColor=none;fillColor=none;align=left;verticalAlign=top;spacingLeft=4;spacingRight=4;overflow=hidden;rotatable=0;points=[[0,0.5],[1,0.5]];portConstraint=eastwest;whiteSpace=wrap;html=1;fontSize=6;spacing=1;" vertex="1" parent="UE-0gr97bJ8DjtLUeU1i-91">
          <mxGeometry y="26" width="160" height="18" as="geometry" />
        </mxCell>
        <mxCell id="UE-0gr97bJ8DjtLUeU1i-93" value="cardArr : Card[]&amp;nbsp;" style="text;strokeColor=none;fillColor=none;align=left;verticalAlign=top;spacingLeft=4;spacingRight=4;overflow=hidden;rotatable=0;points=[[0,0.5],[1,0.5]];portConstraint=eastwest;whiteSpace=wrap;html=1;fontSize=6;spacing=1;" vertex="1" parent="UE-0gr97bJ8DjtLUeU1i-91">
          <mxGeometry y="44" width="160" height="18" as="geometry" />
        </mxCell>
        <mxCell id="UE-0gr97bJ8DjtLUeU1i-96" value="" style="line;strokeWidth=1;fillColor=none;align=left;verticalAlign=middle;spacingTop=-1;spacingLeft=3;spacingRight=3;rotatable=0;labelPosition=right;points=[];portConstraint=eastwest;strokeColor=inherit;" vertex="1" parent="UE-0gr97bJ8DjtLUeU1i-91">
          <mxGeometry y="62" width="160" height="8" as="geometry" />
        </mxCell>
        <mxCell id="UE-0gr97bJ8DjtLUeU1i-97" value="pick() : Card" style="text;strokeColor=none;fillColor=none;align=left;verticalAlign=top;spacingLeft=4;spacingRight=4;overflow=hidden;rotatable=0;points=[[0,0.5],[1,0.5]];portConstraint=eastwest;whiteSpace=wrap;html=1;fontSize=6;spacing=1;" vertex="1" parent="UE-0gr97bJ8DjtLUeU1i-91">
          <mxGeometry y="70" width="160" height="18" as="geometry" />
        </mxCell>
        <mxCell id="UE-0gr97bJ8DjtLUeU1i-98" value="shuffle() : void" style="text;strokeColor=none;fillColor=none;align=left;verticalAlign=top;spacingLeft=4;spacingRight=4;overflow=hidden;rotatable=0;points=[[0,0.5],[1,0.5]];portConstraint=eastwest;whiteSpace=wrap;html=1;fontSize=6;spacing=1;" vertex="1" parent="UE-0gr97bJ8DjtLUeU1i-91">
          <mxGeometry y="88" width="160" height="18" as="geometry" />
        </mxCell>
        <mxCell id="UE-0gr97bJ8DjtLUeU1i-99" value="Main" style="swimlane;fontStyle=1;align=center;verticalAlign=top;childLayout=stackLayout;horizontal=1;startSize=26;horizontalStack=0;resizeParent=1;resizeParentMax=0;resizeLast=0;collapsible=1;marginBottom=0;whiteSpace=wrap;html=1;labelBackgroundColor=default;spacing=1;" vertex="1" parent="WIyWlLk6GJQsqaUBKTNV-1">
          <mxGeometry x="400" y="178" width="160" height="44" as="geometry" />
        </mxCell>
        <mxCell id="UE-0gr97bJ8DjtLUeU1i-100" value="Main1(String[]) : void&amp;nbsp;" style="text;strokeColor=none;fillColor=none;align=left;verticalAlign=top;spacingLeft=4;spacingRight=4;overflow=hidden;rotatable=0;points=[[0,0.5],[1,0.5]];portConstraint=eastwest;whiteSpace=wrap;html=1;fontSize=6;spacing=0;" vertex="1" parent="UE-0gr97bJ8DjtLUeU1i-99">
          <mxGeometry y="26" width="160" height="18" as="geometry" />
        </mxCell>
        <mxCell id="Jv2AM5DRUg8VrkL58GBL-0" style="edgeStyle=orthogonalEdgeStyle;rounded=0;orthogonalLoop=1;jettySize=auto;html=1;entryX=0.25;entryY=0;entryDx=0;entryDy=0;" edge="1" parent="WIyWlLk6GJQsqaUBKTNV-1" source="UE-0gr97bJ8DjtLUeU1i-6" target="UE-0gr97bJ8DjtLUeU1i-69">
          <mxGeometry relative="1" as="geometry" />
        </mxCell>
        <mxCell id="Jv2AM5DRUg8VrkL58GBL-1" style="edgeStyle=orthogonalEdgeStyle;rounded=0;orthogonalLoop=1;jettySize=auto;html=1;entryX=0.25;entryY=0;entryDx=0;entryDy=0;" edge="1" parent="WIyWlLk6GJQsqaUBKTNV-1" source="UE-0gr97bJ8DjtLUeU1i-7" target="UE-0gr97bJ8DjtLUeU1i-19">
          <mxGeometry relative="1" as="geometry">
            <mxPoint x="1160" y="330" as="targetPoint" />
            <Array as="points">
              <mxPoint x="1100" y="267" />
              <mxPoint x="1100" y="250" />
              <mxPoint x="1160" y="250" />
            </Array>
          </mxGeometry>
        </mxCell>
        <mxCell id="Jv2AM5DRUg8VrkL58GBL-2" style="edgeStyle=orthogonalEdgeStyle;rounded=0;orthogonalLoop=1;jettySize=auto;html=1;entryX=0.75;entryY=0;entryDx=0;entryDy=0;" edge="1" parent="WIyWlLk6GJQsqaUBKTNV-1" source="UE-0gr97bJ8DjtLUeU1i-13" target="UE-0gr97bJ8DjtLUeU1i-91">
          <mxGeometry relative="1" as="geometry">
            <mxPoint x="510" y="290" as="targetPoint" />
          </mxGeometry>
        </mxCell>
        <mxCell id="Jv2AM5DRUg8VrkL58GBL-3" style="edgeStyle=orthogonalEdgeStyle;rounded=0;orthogonalLoop=1;jettySize=auto;html=1;" edge="1" parent="WIyWlLk6GJQsqaUBKTNV-1" source="UE-0gr97bJ8DjtLUeU1i-14">
          <mxGeometry relative="1" as="geometry">
            <mxPoint x="520" y="520" as="targetPoint" />
          </mxGeometry>
        </mxCell>
        <mxCell id="Jv2AM5DRUg8VrkL58GBL-4" style="edgeStyle=orthogonalEdgeStyle;rounded=0;orthogonalLoop=1;jettySize=auto;html=1;" edge="1" parent="WIyWlLk6GJQsqaUBKTNV-1" source="UE-0gr97bJ8DjtLUeU1i-14" target="UE-0gr97bJ8DjtLUeU1i-91">
          <mxGeometry relative="1" as="geometry" />
        </mxCell>
        <mxCell id="Jv2AM5DRUg8VrkL58GBL-5" style="edgeStyle=orthogonalEdgeStyle;rounded=0;orthogonalLoop=1;jettySize=auto;html=1;entryX=0.25;entryY=0;entryDx=0;entryDy=0;" edge="1" parent="WIyWlLk6GJQsqaUBKTNV-1" source="UE-0gr97bJ8DjtLUeU1i-15" target="UE-0gr97bJ8DjtLUeU1i-91">
          <mxGeometry relative="1" as="geometry">
            <Array as="points">
              <mxPoint x="240" y="400" />
            </Array>
          </mxGeometry>
        </mxCell>
        <mxCell id="Jv2AM5DRUg8VrkL58GBL-6" style="edgeStyle=orthogonalEdgeStyle;rounded=0;orthogonalLoop=1;jettySize=auto;html=1;" edge="1" parent="WIyWlLk6GJQsqaUBKTNV-1" source="UE-0gr97bJ8DjtLUeU1i-15">
          <mxGeometry relative="1" as="geometry">
            <mxPoint x="480" y="520" as="targetPoint" />
            <Array as="points">
              <mxPoint x="480" y="401" />
            </Array>
          </mxGeometry>
        </mxCell>
        <mxCell id="Jv2AM5DRUg8VrkL58GBL-7" style="edgeStyle=orthogonalEdgeStyle;rounded=0;orthogonalLoop=1;jettySize=auto;html=1;" edge="1" parent="WIyWlLk6GJQsqaUBKTNV-1" source="UE-0gr97bJ8DjtLUeU1i-16">
          <mxGeometry relative="1" as="geometry">
            <mxPoint x="445" y="520" as="targetPoint" />
          </mxGeometry>
        </mxCell>
        <mxCell id="Jv2AM5DRUg8VrkL58GBL-8" style="edgeStyle=orthogonalEdgeStyle;rounded=0;orthogonalLoop=1;jettySize=auto;html=1;entryX=0.75;entryY=0;entryDx=0;entryDy=0;" edge="1" parent="WIyWlLk6GJQsqaUBKTNV-1" source="UE-0gr97bJ8DjtLUeU1i-17" target="UE-0gr97bJ8DjtLUeU1i-86">
          <mxGeometry relative="1" as="geometry">
            <mxPoint x="750" y="520" as="targetPoint" />
          </mxGeometry>
        </mxCell>
        <mxCell id="Jv2AM5DRUg8VrkL58GBL-9" style="edgeStyle=orthogonalEdgeStyle;rounded=0;orthogonalLoop=1;jettySize=auto;html=1;entryX=0.25;entryY=0;entryDx=0;entryDy=0;" edge="1" parent="WIyWlLk6GJQsqaUBKTNV-1" source="UE-0gr97bJ8DjtLUeU1i-100" target="UE-0gr97bJ8DjtLUeU1i-0">
          <mxGeometry relative="1" as="geometry" />
        </mxCell>
        <mxCell id="Jv2AM5DRUg8VrkL58GBL-12" style="edgeStyle=orthogonalEdgeStyle;rounded=0;orthogonalLoop=1;jettySize=auto;html=1;entryX=0.75;entryY=0;entryDx=0;entryDy=0;" edge="1" parent="WIyWlLk6GJQsqaUBKTNV-1" source="UE-0gr97bJ8DjtLUeU1i-26" target="UE-0gr97bJ8DjtLUeU1i-69">
          <mxGeometry relative="1" as="geometry" />
        </mxCell>
        <mxCell id="Jv2AM5DRUg8VrkL58GBL-13" style="edgeStyle=orthogonalEdgeStyle;rounded=0;orthogonalLoop=1;jettySize=auto;html=1;" edge="1" parent="WIyWlLk6GJQsqaUBKTNV-1">
          <mxGeometry relative="1" as="geometry">
            <mxPoint x="1199.74" y="386" as="sourcePoint" />
            <mxPoint x="1200" y="450" as="targetPoint" />
          </mxGeometry>
        </mxCell>
        <mxCell id="Jv2AM5DRUg8VrkL58GBL-17" style="edgeStyle=orthogonalEdgeStyle;rounded=0;orthogonalLoop=1;jettySize=auto;html=1;entryX=0.281;entryY=-0.015;entryDx=0;entryDy=0;entryPerimeter=0;" edge="1" parent="WIyWlLk6GJQsqaUBKTNV-1" source="UE-0gr97bJ8DjtLUeU1i-93" target="UE-0gr97bJ8DjtLUeU1i-53">
          <mxGeometry relative="1" as="geometry" />
        </mxCell>
        <mxCell id="Jv2AM5DRUg8VrkL58GBL-18" style="edgeStyle=orthogonalEdgeStyle;rounded=0;orthogonalLoop=1;jettySize=auto;html=1;entryX=0.478;entryY=0.001;entryDx=0;entryDy=0;entryPerimeter=0;" edge="1" parent="WIyWlLk6GJQsqaUBKTNV-1" source="UE-0gr97bJ8DjtLUeU1i-87" target="UE-0gr97bJ8DjtLUeU1i-69">
          <mxGeometry relative="1" as="geometry">
            <Array as="points">
              <mxPoint x="980" y="213" />
              <mxPoint x="980" y="290" />
              <mxPoint x="887" y="290" />
            </Array>
          </mxGeometry>
        </mxCell>
        <mxCell id="Jv2AM5DRUg8VrkL58GBL-19" style="edgeStyle=orthogonalEdgeStyle;rounded=0;orthogonalLoop=1;jettySize=auto;html=1;entryX=0.75;entryY=0;entryDx=0;entryDy=0;" edge="1" parent="WIyWlLk6GJQsqaUBKTNV-1" source="Jv2AM5DRUg8VrkL58GBL-11" target="UE-0gr97bJ8DjtLUeU1i-69">
          <mxGeometry relative="1" as="geometry" />
        </mxCell>
        <mxCell id="Jv2AM5DRUg8VrkL58GBL-22" style="edgeStyle=orthogonalEdgeStyle;rounded=0;orthogonalLoop=1;jettySize=auto;html=1;entryX=0.75;entryY=0;entryDx=0;entryDy=0;" edge="1" parent="WIyWlLk6GJQsqaUBKTNV-1" source="UE-0gr97bJ8DjtLUeU1i-29" target="UE-0gr97bJ8DjtLUeU1i-69">
          <mxGeometry relative="1" as="geometry" />
        </mxCell>
        <mxCell id="Jv2AM5DRUg8VrkL58GBL-37" value="" style="edgeStyle=orthogonalEdgeStyle;orthogonalLoop=1;jettySize=auto;html=1;rounded=0;" edge="1" parent="WIyWlLk6GJQsqaUBKTNV-1">
          <mxGeometry width="80" relative="1" as="geometry">
            <mxPoint x="1360" y="720" as="sourcePoint" />
            <mxPoint x="480" y="670" as="targetPoint" />
          </mxGeometry>
        </mxCell>
        <mxCell id="Jv2AM5DRUg8VrkL58GBL-46" value="" style="edgeStyle=orthogonalEdgeStyle;orthogonalLoop=1;jettySize=auto;html=1;rounded=0;" edge="1" parent="WIyWlLk6GJQsqaUBKTNV-1">
          <mxGeometry width="80" relative="1" as="geometry">
            <mxPoint x="679.8" y="674" as="sourcePoint" />
            <mxPoint x="520" y="520" as="targetPoint" />
            <Array as="points">
              <mxPoint x="680" y="490" />
            </Array>
          </mxGeometry>
        </mxCell>
      </root>
    </mxGraphModel>
  </diagram>
</mxfile>
